<svg width="375" height="547" viewBox="0 0 375 547" fill="none" xmlns="http://www.w3.org/2000/svg">
<path opacity="0.498675" d="M20.5 450C36.7924 450 50 436.792 50 420.5C50 404.208 36.7924 391 20.5 391C4.2076 391 -9 404.208 -9 420.5C-9 436.792 4.2076 450 20.5 450Z" fill="url(#paint0_linear)"/>
<path d="M377 497C441.065 497 493 445.065 493 381C493 316.935 441.065 265 377 265C312.935 265 261 316.935 261 381C261 445.065 312.935 497 377 497Z" fill="url(#paint1_linear)"/>
<path d="M376.5 173C401.629 173 422 152.629 422 127.5C422 102.371 401.629 82 376.5 82C351.371 82 331 102.371 331 127.5C331 152.629 351.371 173 376.5 173Z" fill="url(#paint2_linear)"/>
<path opacity="0.497791" d="M381 46C393.703 46 404 35.7025 404 23C404 10.2975 393.703 0 381 0C368.297 0 358 10.2975 358 23C358 35.7025 368.297 46 381 46Z" fill="url(#paint3_linear)"/>
<path opacity="0.139718" fill-rule="evenodd" clip-rule="evenodd" d="M20.6295 246.779C20.1634 248.348 20.0038 262.99 20 282.171V283.688C20.0081 323.174 20.6426 455.951 20.6303 459.24C20.556 478.76 32.1782 499.249 61.3327 519.287C104.053 548.649 135.756 537.065 166.508 530.084C192.061 524.285 216.148 518.485 243.196 533.537C302.793 566.705 343.798 531.682 406.481 490.266C423.151 479.252 431.015 466.221 431.926 452.139C432.163 448.472 432.691 405.643 432.696 367.055V365.954C432.692 335.434 432.355 307.836 431.28 304.77C419.349 270.738 373.014 276.629 319.501 247.968C261.91 217.122 209.822 199.286 163.603 199.289C138.118 199.29 114.412 204.714 92.5658 216.371C59.8157 233.845 28.6768 219.711 20.6295 246.779Z" fill="url(#paint4_linear)"/>
<path fill-rule="evenodd" clip-rule="evenodd" d="M406.481 353.956C343.798 395.373 303.966 359.551 244.369 326.383C184.772 293.216 139.553 361.289 61.3325 307.528C-16.8883 253.767 31.0974 196.752 92.5656 163.954C154.034 131.157 230.156 147.698 319.501 195.552C407.334 242.595 469.165 312.539 406.481 353.956Z" fill="#C59FFF"/>
<path fill-rule="evenodd" clip-rule="evenodd" d="M161.347 257.96C161.466 259.826 163.955 261.128 163.955 261.128L279.115 325.061C279.115 325.061 282.407 327.145 286.373 325.061C290.632 322.824 378.411 271.327 378.411 271.327C378.411 271.327 382.031 269.666 382.286 266.7C382.293 266.826 382.302 266.953 382.302 267.089V271.777C382.302 274.95 378.411 276.734 378.411 276.734C378.411 276.734 290.632 325.356 286.373 327.593C282.407 329.676 279.115 327.593 279.115 327.593L163.955 263.66C163.955 263.66 161.336 262.295 161.336 260.355V258.55C161.339 258.504 161.34 258 161.343 257.642C161.345 257.812 161.347 257.944 161.347 257.96Z" fill="#DDDDFC"/>
<path fill-rule="evenodd" clip-rule="evenodd" d="M163.581 254.16L259.061 198.199C262.503 196.331 264.972 198.199 264.972 198.199L378.411 261.27C378.411 261.27 382.301 263.353 382.301 266.37C382.301 266.482 382.295 266.591 382.286 266.699C382.031 269.666 378.411 271.327 378.411 271.327C378.411 271.327 290.632 322.824 286.373 325.061C282.407 327.144 279.115 325.061 279.115 325.061L163.955 261.128C163.955 261.128 161.466 259.826 161.347 257.959C161.346 257.944 161.345 257.812 161.343 257.642C161.34 257.303 161.336 256.811 161.336 256.781C161.336 255.285 163.581 254.16 163.581 254.16Z" fill="#F6F6FF"/>
<path fill-rule="evenodd" clip-rule="evenodd" d="M386.683 261.658C386.782 261.6 386.876 261.538 386.968 261.474C389.472 259.719 389.06 255.886 389.06 255.886C389.06 255.886 389.064 160.004 388.832 155.348C388.616 151.013 385.047 149.402 385.047 149.402L268.174 85.5268C268.174 85.5268 265.719 84.1672 263.998 85.0427C263.984 85.0501 263.865 85.1178 263.713 85.205C263.631 85.2532 263.538 85.3062 263.445 85.3592C263.445 85.3592 263.446 85.3592 263.446 85.3588C263.92 85.0566 264.862 84.6028 265.165 84.4286C265.317 84.3414 265.436 84.2737 265.45 84.2667C267.17 83.3908 270.27 84.9514 270.27 84.9514L387.144 148.827C387.144 148.827 390.712 150.438 390.928 154.773C391.16 159.429 391.156 255.311 391.156 255.311C391.156 255.311 391.568 259.143 389.064 260.899C388.973 260.963 388.879 261.025 388.78 261.083C386.098 262.656 383.474 262.188 383.474 262.188H383.474C384.536 262.318 385.692 262.24 386.683 261.658Z" fill="#DDDDFC"/>
<path fill-rule="evenodd" clip-rule="evenodd" d="M262.944 85.6488C262.965 85.637 263.201 85.5004 263.445 85.3593C263.537 85.3063 263.63 85.2528 263.714 85.2051C263.866 85.1179 263.984 85.0502 263.998 85.0428C265.719 84.1673 268.174 85.5269 268.174 85.5269L385.047 149.402C385.047 149.402 388.616 151.013 388.831 155.348C389.064 160.004 389.06 255.887 389.06 255.887C389.06 255.887 389.472 259.718 386.968 261.474C386.877 261.538 386.782 261.6 386.683 261.658C385.692 262.24 384.536 262.319 383.474 262.188C381.662 261.964 380.121 261.13 380.121 261.13L264.912 196.819C264.912 196.819 261.964 195.769 261.83 191.976L261.786 88.854C261.786 88.854 261.615 86.4285 262.944 85.6488Z" fill="#F6F6FF"/>
<path fill-rule="evenodd" clip-rule="evenodd" d="M350.325 264.006L350.306 263.867C350.309 263.914 350.315 263.96 350.325 264.006Z" fill="#DDDDFC"/>
<path fill-rule="evenodd" clip-rule="evenodd" d="M350.305 263.859L350.306 263.867C350.306 263.864 350.306 263.862 350.306 263.859H350.305Z" fill="#DDDDFC"/>
<path fill-rule="evenodd" clip-rule="evenodd" d="M365.775 264.875L359.889 268.117C358.825 268.703 358.136 268.647 357.255 268.187L350.919 264.718C350.561 264.506 350.381 264.258 350.325 264.006L350.393 264.506C350.437 264.761 350.664 264.974 350.944 265.14L357.28 268.609C358.161 269.069 358.851 269.125 359.914 268.54L365.801 265.297C366.163 265.097 366.511 264.957 366.546 264.556L366.594 263.821H366.591C366.573 264.224 366.279 264.597 365.775 264.875Z" fill="#DDDDFC"/>
<path fill-rule="evenodd" clip-rule="evenodd" d="M338.705 257.564L338.686 257.425C338.688 257.471 338.695 257.518 338.705 257.564Z" fill="#DDDDFC"/>
<path fill-rule="evenodd" clip-rule="evenodd" d="M338.685 257.417L338.686 257.425V257.417H338.685Z" fill="#DDDDFC"/>
<path fill-rule="evenodd" clip-rule="evenodd" d="M354.155 258.433L348.269 261.675C347.205 262.261 346.516 262.205 345.635 261.745L339.299 258.275C338.941 258.064 338.761 257.816 338.705 257.564L338.772 258.064C338.817 258.319 339.043 258.532 339.324 258.698L345.66 262.168C346.541 262.627 347.23 262.684 348.294 262.098L354.18 258.855C354.543 258.655 354.891 258.515 354.926 258.113L354.973 257.379L354.971 257.379C354.952 257.782 354.659 258.155 354.155 258.433Z" fill="#DDDDFC"/>
<path fill-rule="evenodd" clip-rule="evenodd" d="M342.661 251.898L336.775 255.14C335.712 255.726 335.022 255.67 334.14 255.21L327.805 251.74C327.447 251.529 327.267 251.28 327.211 251.028L327.278 251.529C327.323 251.784 327.55 251.996 327.83 252.162L334.166 255.632C335.047 256.092 335.736 256.148 336.8 255.562L342.686 252.32C343.049 252.12 343.396 251.979 343.432 251.578L343.479 250.844H343.477C343.459 251.246 343.165 251.62 342.661 251.898Z" fill="#DDDDFC"/>
<path fill-rule="evenodd" clip-rule="evenodd" d="M315.999 244.256L315.98 244.117C315.983 244.163 315.989 244.209 315.999 244.256Z" fill="#DDDDFC"/>
<path fill-rule="evenodd" clip-rule="evenodd" d="M315.979 244.109L315.981 244.117V244.109H315.979Z" fill="#DDDDFC"/>
<path fill-rule="evenodd" clip-rule="evenodd" d="M331.449 245.125L325.563 248.367C324.499 248.953 323.81 248.897 322.929 248.437L316.593 244.968C316.235 244.755 316.055 244.508 315.999 244.256L316.066 244.755C316.111 245.011 316.338 245.224 316.618 245.389L322.954 248.859C323.835 249.319 324.525 249.375 325.588 248.789L331.475 245.547C331.837 245.347 332.185 245.206 332.22 244.805L332.268 244.071H332.264C332.247 244.473 331.953 244.847 331.449 245.125Z" fill="#DDDDFC"/>
<path fill-rule="evenodd" clip-rule="evenodd" d="M304.379 237.814L304.36 237.675C304.362 237.721 304.369 237.767 304.379 237.814Z" fill="#DDDDFC"/>
<path fill-rule="evenodd" clip-rule="evenodd" d="M304.359 237.667L304.36 237.675V237.667H304.359Z" fill="#DDDDFC"/>
<path fill-rule="evenodd" clip-rule="evenodd" d="M319.829 238.683L313.943 241.925C312.879 242.511 312.19 242.455 311.309 241.995L304.973 238.525C304.615 238.314 304.435 238.066 304.379 237.814L304.446 238.314C304.491 238.569 304.717 238.782 304.999 238.947L311.335 242.417C312.215 242.877 312.904 242.933 313.968 242.347L319.854 239.105C320.217 238.905 320.565 238.765 320.6 238.363L320.647 237.628L320.645 237.629C320.627 238.032 320.333 238.405 319.829 238.683Z" fill="#DDDDFC"/>
<path fill-rule="evenodd" clip-rule="evenodd" d="M308.335 232.147L302.449 235.389C301.386 235.975 300.696 235.919 299.815 235.459L293.479 231.989C293.121 231.779 292.941 231.53 292.885 231.277L292.952 231.778C292.997 232.034 293.224 232.246 293.504 232.411L299.84 235.881C300.721 236.341 301.41 236.398 302.474 235.812L308.36 232.569C308.724 232.37 309.07 232.228 309.106 231.828L309.154 231.093H309.151C309.133 231.496 308.839 231.869 308.335 232.147Z" fill="#DDDDFC"/>
<path fill-rule="evenodd" clip-rule="evenodd" d="M281.4 224.692L281.401 224.699C281.401 224.696 281.402 224.694 281.401 224.692H281.4Z" fill="#DDDDFC"/>
<path fill-rule="evenodd" clip-rule="evenodd" d="M296.87 225.707L290.984 228.949C289.92 229.535 289.231 229.479 288.349 229.019L282.014 225.55C281.656 225.338 281.476 225.09 281.42 224.838L281.488 225.338C281.531 225.593 281.759 225.806 282.039 225.972L288.375 229.441C289.255 229.901 289.946 229.957 291.009 229.371L296.895 226.129C297.258 225.929 297.605 225.788 297.64 225.387L297.689 224.653H297.686C297.668 225.056 297.374 225.429 296.87 225.707Z" fill="#DDDDFC"/>
<path fill-rule="evenodd" clip-rule="evenodd" d="M269.8 218.396L269.781 218.257C269.783 218.303 269.79 218.349 269.8 218.396Z" fill="#DDDDFC"/>
<path fill-rule="evenodd" clip-rule="evenodd" d="M269.78 218.249L269.781 218.257V218.249H269.78Z" fill="#DDDDFC"/>
<path fill-rule="evenodd" clip-rule="evenodd" d="M285.25 219.265L279.364 222.507C278.3 223.093 277.61 223.037 276.73 222.577L270.393 219.107C270.036 218.896 269.856 218.648 269.8 218.396L269.867 218.896C269.912 219.152 270.138 219.364 270.419 219.53L276.756 222.999C277.636 223.459 278.325 223.515 279.389 222.929L285.275 219.687C285.638 219.487 285.985 219.347 286.021 218.946L286.068 218.21L286.066 218.211C286.047 218.613 285.754 218.987 285.25 219.265Z" fill="#DDDDFC"/>
<path fill-rule="evenodd" clip-rule="evenodd" d="M273.756 212.729L267.87 215.972C266.807 216.558 266.117 216.501 265.236 216.041L258.899 212.572C258.542 212.361 258.362 212.112 258.306 211.86L258.373 212.361C258.418 212.616 258.645 212.828 258.925 212.994L265.261 216.463C266.141 216.924 266.831 216.979 267.895 216.394L273.781 213.151C274.144 212.952 274.491 212.811 274.527 212.41L274.574 211.675H274.572C274.554 212.078 274.26 212.452 273.756 212.729Z" fill="#DDDDFC"/>
<path fill-rule="evenodd" clip-rule="evenodd" d="M338.894 270.542L338.875 270.403C338.877 270.449 338.883 270.495 338.894 270.542Z" fill="#DDDDFC"/>
<path fill-rule="evenodd" clip-rule="evenodd" d="M338.874 270.395L338.874 270.403C338.874 270.4 338.875 270.398 338.874 270.395H338.874Z" fill="#DDDDFC"/>
<path fill-rule="evenodd" clip-rule="evenodd" d="M327.273 264.1L327.254 263.961C327.257 264.007 327.264 264.053 327.273 264.1Z" fill="#DDDDFC"/>
<path fill-rule="evenodd" clip-rule="evenodd" d="M327.253 263.953L327.254 263.961C327.255 263.958 327.254 263.955 327.254 263.953H327.253Z" fill="#DDDDFC"/>
<path fill-rule="evenodd" clip-rule="evenodd" d="M342.724 264.969L336.838 268.211C335.774 268.797 335.085 268.74 334.204 268.28L327.867 264.811C327.51 264.6 327.33 264.352 327.273 264.1L327.341 264.6C327.386 264.855 327.612 265.067 327.893 265.233L334.229 268.703C335.109 269.163 335.799 269.219 336.862 268.633L342.749 265.391C343.112 265.191 343.459 265.05 343.494 264.649L343.542 263.914L343.54 263.915C343.522 264.318 343.228 264.691 342.724 264.969Z" fill="#DDDDFC"/>
<path fill-rule="evenodd" clip-rule="evenodd" d="M331.23 258.433L325.343 261.675C324.28 262.261 323.59 262.205 322.709 261.745L316.373 258.275C316.015 258.065 315.836 257.816 315.78 257.564L315.847 258.064C315.891 258.319 316.118 258.532 316.399 258.697L322.734 262.167C323.615 262.628 324.306 262.683 325.368 262.097L331.255 258.855C331.618 258.655 331.966 258.515 332 258.114L332.048 257.379H332.045C332.027 257.782 331.734 258.155 331.23 258.433Z" fill="#DDDDFC"/>
<path fill-rule="evenodd" clip-rule="evenodd" d="M304.568 250.791L304.549 250.653C304.551 250.699 304.557 250.745 304.568 250.791Z" fill="#DDDDFC"/>
<path fill-rule="evenodd" clip-rule="evenodd" d="M304.548 250.645L304.549 250.652C304.549 250.65 304.549 250.647 304.549 250.645H304.548Z" fill="#DDDDFC"/>
<path fill-rule="evenodd" clip-rule="evenodd" d="M320.018 251.66L314.131 254.902C313.068 255.488 312.379 255.432 311.498 254.973L305.162 251.503C304.804 251.291 304.624 251.043 304.568 250.791L304.635 251.291C304.679 251.546 304.907 251.759 305.187 251.925L311.523 255.395C312.403 255.855 313.094 255.911 314.156 255.325L320.043 252.083C320.406 251.882 320.753 251.742 320.789 251.341L320.836 250.607H320.834C320.816 251.009 320.522 251.383 320.018 251.66Z" fill="#DDDDFC"/>
<path fill-rule="evenodd" clip-rule="evenodd" d="M292.947 244.349L292.929 244.21C292.931 244.256 292.938 244.303 292.947 244.349Z" fill="#DDDDFC"/>
<path fill-rule="evenodd" clip-rule="evenodd" d="M292.927 244.203L292.929 244.21C292.929 244.208 292.929 244.205 292.929 244.203H292.927Z" fill="#DDDDFC"/>
<path fill-rule="evenodd" clip-rule="evenodd" d="M308.398 245.218L302.512 248.461C301.448 249.047 300.759 248.99 299.878 248.53L293.541 245.06C293.184 244.849 293.004 244.601 292.948 244.349L293.015 244.849C293.06 245.105 293.286 245.317 293.567 245.483L299.903 248.953C300.783 249.412 301.474 249.469 302.537 248.883L308.423 245.64C308.786 245.44 309.133 245.3 309.168 244.899L309.216 244.164H309.213C309.196 244.567 308.902 244.941 308.398 245.218Z" fill="#DDDDFC"/>
<path fill-rule="evenodd" clip-rule="evenodd" d="M296.904 238.683L291.018 241.925C289.954 242.511 289.264 242.455 288.383 241.995L282.047 238.525C281.689 238.314 281.51 238.065 281.454 237.813L281.521 238.314C281.565 238.569 281.793 238.782 282.073 238.947L288.409 242.417C289.289 242.877 289.979 242.933 291.043 242.347L296.929 239.105C297.292 238.905 297.64 238.764 297.674 238.363L297.722 237.629H297.719C297.701 238.031 297.408 238.405 296.904 238.683Z" fill="#DDDDFC"/>
<path fill-rule="evenodd" clip-rule="evenodd" d="M269.989 231.373L269.97 231.234C269.973 231.281 269.979 231.327 269.989 231.373Z" fill="#DDDDFC"/>
<path fill-rule="evenodd" clip-rule="evenodd" d="M269.969 231.227L269.97 231.235C269.97 231.232 269.97 231.229 269.97 231.227H269.969Z" fill="#DDDDFC"/>
<path fill-rule="evenodd" clip-rule="evenodd" d="M285.438 232.242L279.552 235.484C278.489 236.071 277.799 236.014 276.919 235.555L270.582 232.085C270.225 231.873 270.045 231.625 269.989 231.373L270.056 231.873C270.1 232.129 270.328 232.341 270.607 232.507L276.944 235.977C277.824 236.437 278.514 236.493 279.577 235.907L285.464 232.665C285.827 232.465 286.174 232.324 286.21 231.923L286.257 231.188H286.254C286.237 231.591 285.943 231.965 285.438 232.242Z" fill="#DDDDFC"/>
<path fill-rule="evenodd" clip-rule="evenodd" d="M258.368 224.931L258.349 224.792C258.352 224.838 258.359 224.885 258.368 224.931Z" fill="#DDDDFC"/>
<path fill-rule="evenodd" clip-rule="evenodd" d="M258.349 224.785L258.349 224.793V224.785H258.349Z" fill="#DDDDFC"/>
<path fill-rule="evenodd" clip-rule="evenodd" d="M273.818 225.801L267.932 229.043C266.869 229.629 266.18 229.572 265.299 229.112L258.962 225.642C258.605 225.432 258.425 225.184 258.369 224.931L258.436 225.432C258.481 225.687 258.707 225.899 258.988 226.065L265.324 229.535C266.204 229.994 266.894 230.051 267.957 229.465L273.844 226.223C274.207 226.022 274.554 225.882 274.589 225.481L274.637 224.746L274.634 224.746C274.616 225.149 274.322 225.523 273.818 225.801Z" fill="#DDDDFC"/>
<path fill-rule="evenodd" clip-rule="evenodd" d="M326.543 277.077L326.524 276.938C326.526 276.985 326.533 277.031 326.543 277.077Z" fill="#DDDDFC"/>
<path fill-rule="evenodd" clip-rule="evenodd" d="M326.523 276.931L326.524 276.939C326.523 276.936 326.524 276.933 326.523 276.931H326.523Z" fill="#DDDDFC"/>
<path fill-rule="evenodd" clip-rule="evenodd" d="M314.923 270.635L314.904 270.496C314.906 270.542 314.913 270.589 314.923 270.635Z" fill="#DDDDFC"/>
<path fill-rule="evenodd" clip-rule="evenodd" d="M314.902 270.489L314.904 270.496V270.489H314.902Z" fill="#DDDDFC"/>
<path fill-rule="evenodd" clip-rule="evenodd" d="M330.372 271.504L324.486 274.747C323.423 275.332 322.733 275.276 321.852 274.816L315.516 271.347C315.158 271.135 314.979 270.887 314.923 270.635L314.99 271.135C315.034 271.391 315.261 271.603 315.542 271.769L321.878 275.239C322.758 275.698 323.448 275.755 324.511 275.169L330.398 271.926C330.761 271.726 331.108 271.586 331.143 271.185L331.191 270.45L331.188 270.45C331.17 270.853 330.877 271.227 330.372 271.504Z" fill="#DDDDFC"/>
<path fill-rule="evenodd" clip-rule="evenodd" d="M318.879 264.969L312.992 268.211C311.93 268.797 311.24 268.741 310.358 268.281L304.022 264.811C303.664 264.6 303.485 264.351 303.429 264.099L303.496 264.6C303.54 264.855 303.768 265.067 304.047 265.233L310.384 268.703C311.264 269.163 311.954 269.219 313.018 268.633L318.904 265.391C319.267 265.191 319.614 265.05 319.649 264.649L319.696 263.915H319.695C319.676 264.317 319.383 264.691 318.879 264.969Z" fill="#DDDDFC"/>
<path fill-rule="evenodd" clip-rule="evenodd" d="M292.217 257.327L292.198 257.188C292.2 257.235 292.207 257.28 292.217 257.327Z" fill="#DDDDFC"/>
<path fill-rule="evenodd" clip-rule="evenodd" d="M292.197 257.18L292.198 257.188C292.197 257.185 292.198 257.183 292.197 257.18H292.197Z" fill="#DDDDFC"/>
<path fill-rule="evenodd" clip-rule="evenodd" d="M307.667 258.196L301.781 261.438C300.717 262.024 300.028 261.968 299.146 261.508L292.81 258.039C292.453 257.826 292.273 257.579 292.217 257.327L292.284 257.826C292.328 258.082 292.555 258.295 292.836 258.461L299.171 261.93C300.052 262.39 300.742 262.446 301.806 261.861L307.692 258.618C308.055 258.418 308.402 258.277 308.438 257.877L308.485 257.142H308.482C308.464 257.545 308.17 257.919 307.667 258.196Z" fill="#DDDDFC"/>
<path fill-rule="evenodd" clip-rule="evenodd" d="M280.597 250.885L280.578 250.746C280.58 250.792 280.587 250.838 280.597 250.885Z" fill="#DDDDFC"/>
<path fill-rule="evenodd" clip-rule="evenodd" d="M280.577 250.738L280.578 250.746V250.738H280.577Z" fill="#DDDDFC"/>
<path fill-rule="evenodd" clip-rule="evenodd" d="M296.047 251.754L290.161 254.996C289.097 255.582 288.407 255.526 287.527 255.066L281.19 251.596C280.833 251.385 280.653 251.137 280.597 250.885L280.664 251.385C280.709 251.64 280.935 251.853 281.216 252.019L287.552 255.488C288.433 255.948 289.122 256.004 290.186 255.418L296.072 252.176C296.435 251.976 296.782 251.835 296.818 251.435L296.865 250.699L296.863 250.7C296.844 251.103 296.551 251.476 296.047 251.754Z" fill="#DDDDFC"/>
<path fill-rule="evenodd" clip-rule="evenodd" d="M284.553 245.218L278.666 248.461C277.604 249.047 276.914 248.99 276.032 248.53L269.696 245.061C269.339 244.85 269.159 244.601 269.103 244.349L269.17 244.849C269.214 245.104 269.442 245.317 269.722 245.483L276.058 248.952C276.938 249.413 277.628 249.469 278.692 248.883L284.578 245.64C284.941 245.44 285.288 245.3 285.323 244.899L285.371 244.164H285.368C285.351 244.567 285.057 244.941 284.553 245.218Z" fill="#DDDDFC"/>
<path fill-rule="evenodd" clip-rule="evenodd" d="M257.638 237.909L257.618 237.77C257.621 237.817 257.628 237.863 257.638 237.909Z" fill="#DDDDFC"/>
<path fill-rule="evenodd" clip-rule="evenodd" d="M257.618 237.762L257.619 237.77C257.619 237.767 257.619 237.765 257.619 237.762H257.618Z" fill="#DDDDFC"/>
<path fill-rule="evenodd" clip-rule="evenodd" d="M273.087 238.778L267.201 242.02C266.138 242.606 265.449 242.55 264.567 242.09L258.231 238.621C257.874 238.408 257.693 238.161 257.638 237.909L257.705 238.408C257.749 238.665 257.977 238.877 258.256 239.043L264.593 242.512C265.473 242.972 266.164 243.028 267.226 242.443L273.113 239.2C273.476 239 273.823 238.859 273.858 238.459L273.906 237.724H273.903C273.885 238.127 273.592 238.5 273.087 238.778Z" fill="#DDDDFC"/>
<path fill-rule="evenodd" clip-rule="evenodd" d="M246.018 231.467L245.999 231.328C246.001 231.374 246.008 231.421 246.018 231.467Z" fill="#DDDDFC"/>
<path fill-rule="evenodd" clip-rule="evenodd" d="M245.997 231.32L245.999 231.328V231.32H245.997Z" fill="#DDDDFC"/>
<path fill-rule="evenodd" clip-rule="evenodd" d="M261.467 232.336L255.582 235.578C254.518 236.164 253.828 236.108 252.948 235.648L246.611 232.178C246.254 231.967 246.073 231.719 246.018 231.467L246.085 231.967C246.129 232.223 246.356 232.435 246.637 232.6L252.973 236.07C253.853 236.53 254.543 236.586 255.607 236L261.493 232.758C261.856 232.558 262.203 232.418 262.238 232.017L262.285 231.282L262.284 231.282C262.265 231.685 261.971 232.058 261.467 232.336Z" fill="#DDDDFC"/>
<path fill-rule="evenodd" clip-rule="evenodd" d="M262.324 219.368L256.439 222.611C255.375 223.197 254.686 223.14 253.805 222.68L247.469 219.211C247.111 218.999 246.931 218.752 246.875 218.5L246.942 218.999C246.987 219.255 247.213 219.467 247.494 219.633L253.83 223.103C254.71 223.563 255.4 223.619 256.464 223.033L262.35 219.791C262.713 219.59 263.061 219.45 263.095 219.049L263.143 218.314L263.14 218.314C263.122 218.717 262.829 219.091 262.324 219.368Z" fill="#DDDDFC"/>
<path fill-rule="evenodd" clip-rule="evenodd" d="M249.973 225.904L244.088 229.146C243.025 229.732 242.335 229.676 241.454 229.216L235.118 225.746C234.76 225.535 234.58 225.287 234.524 225.035L234.591 225.535C234.635 225.79 234.863 226.003 235.143 226.169L241.479 229.638C242.36 230.098 243.049 230.155 244.113 229.569L249.999 226.326C250.363 226.126 250.709 225.986 250.744 225.584L250.792 224.85L250.789 224.85C250.772 225.253 250.478 225.626 249.973 225.904Z" fill="#DDDDFC"/>
<path fill-rule="evenodd" clip-rule="evenodd" d="M354.197 271.457L335.959 281.196C334.896 281.782 334.206 281.726 333.326 281.266L326.99 277.796C326.631 277.586 326.452 277.337 326.396 277.084L326.463 277.585C326.507 277.84 326.735 278.053 327.015 278.218L333.351 281.688C334.231 282.148 334.922 282.204 335.985 281.619L354.222 271.879C354.585 271.679 354.932 271.539 354.968 271.138L355.016 270.403H355.012C354.994 270.805 354.701 271.179 354.197 271.457Z" fill="#DDDDFC"/>
<path fill-rule="evenodd" clip-rule="evenodd" d="M315.111 283.613L315.092 283.474C315.095 283.521 315.101 283.566 315.111 283.613Z" fill="#DDDDFC"/>
<path fill-rule="evenodd" clip-rule="evenodd" d="M315.092 283.466L315.092 283.474C315.092 283.471 315.093 283.469 315.092 283.466H315.092Z" fill="#DDDDFC"/>
<path fill-rule="evenodd" clip-rule="evenodd" d="M330.561 284.482L324.675 287.724C323.612 288.31 322.922 288.254 322.042 287.794L315.705 284.325C315.348 284.112 315.168 283.865 315.111 283.613L315.179 284.112C315.223 284.368 315.45 284.581 315.73 284.747L322.067 288.216C322.947 288.676 323.637 288.732 324.7 288.147L330.586 284.904C330.949 284.704 331.296 284.563 331.332 284.163L331.38 283.428H331.377C331.358 283.831 331.065 284.204 330.561 284.482Z" fill="#DDDDFC"/>
<path fill-rule="evenodd" clip-rule="evenodd" d="M303.491 277.171L303.472 277.032C303.475 277.078 303.481 277.124 303.491 277.171Z" fill="#DDDDFC"/>
<path fill-rule="evenodd" clip-rule="evenodd" d="M303.471 277.024L303.472 277.032C303.473 277.029 303.472 277.027 303.472 277.024H303.471Z" fill="#DDDDFC"/>
<path fill-rule="evenodd" clip-rule="evenodd" d="M318.941 278.04L313.055 281.282C311.992 281.868 311.302 281.812 310.421 281.352L304.085 277.882C303.728 277.671 303.548 277.423 303.491 277.171L303.558 277.671C303.603 277.926 303.83 278.139 304.111 278.305L310.447 281.774C311.327 282.234 312.016 282.29 313.08 281.704L318.967 278.462C319.33 278.262 319.677 278.122 319.712 277.72L319.759 276.985L319.757 276.986C319.739 277.389 319.445 277.762 318.941 278.04Z" fill="#DDDDFC"/>
<path fill-rule="evenodd" clip-rule="evenodd" d="M307.447 271.504L301.561 274.747C300.498 275.332 299.808 275.276 298.927 274.816L292.59 271.347C292.233 271.136 292.053 270.887 291.997 270.635L292.065 271.135C292.109 271.391 292.336 271.603 292.616 271.769L298.952 275.238C299.832 275.699 300.523 275.754 301.586 275.169L307.473 271.926C307.835 271.727 308.183 271.586 308.218 271.185L308.266 270.45H308.263C308.245 270.853 307.951 271.227 307.447 271.504Z" fill="#DDDDFC"/>
<path fill-rule="evenodd" clip-rule="evenodd" d="M280.785 263.862L280.766 263.723C280.769 263.77 280.775 263.816 280.785 263.862Z" fill="#DDDDFC"/>
<path fill-rule="evenodd" clip-rule="evenodd" d="M280.766 263.716L280.766 263.724C280.766 263.721 280.767 263.718 280.766 263.716H280.766Z" fill="#DDDDFC"/>
<path fill-rule="evenodd" clip-rule="evenodd" d="M296.235 264.731L290.349 267.973C289.286 268.559 288.596 268.503 287.715 268.044L281.379 264.574C281.022 264.362 280.842 264.114 280.785 263.862L280.853 264.362C280.897 264.618 281.124 264.83 281.405 264.996L287.741 268.465C288.621 268.925 289.311 268.982 290.374 268.396L296.261 265.154C296.623 264.954 296.97 264.813 297.006 264.412L297.054 263.678H297.051C297.033 264.08 296.739 264.454 296.235 264.731Z" fill="#DDDDFC"/>
<path fill-rule="evenodd" clip-rule="evenodd" d="M269.165 257.42L269.146 257.281C269.149 257.328 269.155 257.374 269.165 257.42Z" fill="#DDDDFC"/>
<path fill-rule="evenodd" clip-rule="evenodd" d="M269.145 257.274L269.146 257.281V257.274H269.145Z" fill="#DDDDFC"/>
<path fill-rule="evenodd" clip-rule="evenodd" d="M284.615 258.29L278.729 261.532C277.666 262.117 276.976 262.061 276.095 261.601L269.759 258.132C269.402 257.921 269.222 257.673 269.165 257.421L269.232 257.92C269.277 258.176 269.504 258.388 269.784 258.554L276.121 262.024C277.001 262.484 277.69 262.54 278.754 261.954L284.641 258.712C285.003 258.511 285.35 258.371 285.386 257.97L285.434 257.235L285.431 257.236C285.413 257.638 285.119 258.012 284.615 258.29Z" fill="#DDDDFC"/>
<path fill-rule="evenodd" clip-rule="evenodd" d="M273.121 251.754L267.235 254.996C266.172 255.582 265.482 255.526 264.601 255.066L258.265 251.597C257.907 251.385 257.728 251.137 257.671 250.885L257.739 251.385C257.783 251.64 258.01 251.853 258.29 252.018L264.626 255.488C265.507 255.948 266.197 256.004 267.26 255.418L273.147 252.176C273.509 251.976 273.857 251.836 273.892 251.435L273.94 250.7H273.937C273.919 251.102 273.626 251.476 273.121 251.754Z" fill="#DDDDFC"/>
<path fill-rule="evenodd" clip-rule="evenodd" d="M246.206 244.444L246.187 244.305C246.19 244.352 246.196 244.398 246.206 244.444Z" fill="#DDDDFC"/>
<path fill-rule="evenodd" clip-rule="evenodd" d="M246.186 244.298L246.187 244.306C246.187 244.303 246.187 244.3 246.187 244.298H246.186Z" fill="#DDDDFC"/>
<path fill-rule="evenodd" clip-rule="evenodd" d="M261.656 245.314L255.77 248.555C254.707 249.141 254.017 249.086 253.136 248.626L246.8 245.157C246.443 244.944 246.263 244.697 246.207 244.445L246.273 244.944C246.318 245.2 246.545 245.413 246.825 245.579L253.161 249.048C254.042 249.508 254.732 249.564 255.795 248.978L261.681 245.736C262.045 245.536 262.392 245.395 262.427 244.994L262.475 244.26H262.472C262.454 244.662 262.16 245.036 261.656 245.314Z" fill="#DDDDFC"/>
<path fill-rule="evenodd" clip-rule="evenodd" d="M234.586 238.003L234.567 237.864C234.57 237.91 234.576 237.956 234.586 238.003Z" fill="#DDDDFC"/>
<path fill-rule="evenodd" clip-rule="evenodd" d="M234.566 237.856L234.567 237.864V237.856H234.566Z" fill="#DDDDFC"/>
<path fill-rule="evenodd" clip-rule="evenodd" d="M250.036 238.872L244.15 242.114C243.086 242.7 242.397 242.643 241.516 242.184L235.18 238.714C234.822 238.502 234.643 238.255 234.586 238.002L234.653 238.502C234.699 238.758 234.925 238.971 235.206 239.136L241.542 242.606C242.422 243.066 243.112 243.122 244.175 242.536L250.061 239.294C250.424 239.094 250.772 238.953 250.807 238.552L250.855 237.817H250.852C250.834 238.22 250.54 238.594 250.036 238.872Z" fill="#DDDDFC"/>
<path fill-rule="evenodd" clip-rule="evenodd" d="M238.542 232.336L232.656 235.578C231.593 236.164 230.903 236.108 230.022 235.648L223.686 232.179C223.328 231.968 223.148 231.719 223.092 231.467L223.16 231.967C223.204 232.222 223.431 232.435 223.712 232.6L230.047 236.07C230.928 236.53 231.618 236.586 232.681 236L238.568 232.758C238.93 232.558 239.278 232.417 239.313 232.017L239.36 231.282H239.358C239.34 231.684 239.046 232.058 238.542 232.336Z" fill="#DDDDFC"/>
<path fill-rule="evenodd" clip-rule="evenodd" d="M302.764 290.148L302.746 290.009C302.748 290.056 302.754 290.101 302.764 290.148Z" fill="#DDDDFC"/>
<path fill-rule="evenodd" clip-rule="evenodd" d="M302.745 290.002L302.746 290.009V290.002H302.745Z" fill="#DDDDFC"/>
<path fill-rule="evenodd" clip-rule="evenodd" d="M318.215 291.017L312.329 294.259C311.265 294.845 310.576 294.789 309.695 294.33L303.358 290.86C303.001 290.648 302.821 290.4 302.765 290.148L302.832 290.648C302.877 290.903 303.104 291.116 303.384 291.282L309.72 294.751C310.6 295.211 311.291 295.267 312.353 294.682L318.24 291.44C318.603 291.239 318.95 291.099 318.986 290.698L319.034 289.963H319.031C319.012 290.366 318.719 290.739 318.215 291.017Z" fill="#DDDDFC"/>
<path fill-rule="evenodd" clip-rule="evenodd" d="M291.145 283.706L291.125 283.567C291.128 283.613 291.135 283.659 291.145 283.706Z" fill="#DDDDFC"/>
<path fill-rule="evenodd" clip-rule="evenodd" d="M291.125 283.56L291.126 283.567C291.126 283.564 291.126 283.562 291.126 283.56H291.125Z" fill="#DDDDFC"/>
<path fill-rule="evenodd" clip-rule="evenodd" d="M306.594 284.575L300.708 287.818C299.645 288.403 298.956 288.347 298.074 287.887L291.738 284.418C291.381 284.206 291.201 283.958 291.145 283.706L291.212 284.206C291.257 284.462 291.483 284.674 291.764 284.84L298.1 288.309C298.98 288.769 299.67 288.826 300.733 288.24L306.62 284.997C306.983 284.797 307.33 284.657 307.365 284.256L307.413 283.521L307.41 283.521C307.392 283.924 307.099 284.298 306.594 284.575Z" fill="#DDDDFC"/>
<path fill-rule="evenodd" clip-rule="evenodd" d="M295.1 278.04L289.215 281.282C288.152 281.868 287.461 281.812 286.581 281.352L234.454 251.716C234.096 251.505 233.916 251.256 233.859 251.004L233.927 251.504C233.972 251.76 234.199 251.972 234.479 252.138L286.606 281.774C287.486 282.234 288.177 282.29 289.24 281.704L295.126 278.462C295.489 278.262 295.836 278.121 295.872 277.72L295.919 276.985H295.916C295.898 277.388 295.605 277.762 295.1 278.04Z" fill="#DDDDFC"/>
<path fill-rule="evenodd" clip-rule="evenodd" d="M268.439 270.398L268.42 270.259C268.423 270.305 268.429 270.351 268.439 270.398Z" fill="#DDDDFC"/>
<path fill-rule="evenodd" clip-rule="evenodd" d="M268.419 270.251L268.42 270.259C268.42 270.256 268.42 270.254 268.42 270.251H268.419Z" fill="#DDDDFC"/>
<path fill-rule="evenodd" clip-rule="evenodd" d="M256.819 263.956L256.8 263.817C256.802 263.863 256.809 263.909 256.819 263.956Z" fill="#DDDDFC"/>
<path fill-rule="evenodd" clip-rule="evenodd" d="M256.799 263.809L256.8 263.817V263.809H256.799Z" fill="#DDDDFC"/>
<path fill-rule="evenodd" clip-rule="evenodd" d="M233.86 250.98L233.841 250.841C233.843 250.888 233.849 250.933 233.86 250.98Z" fill="#DDDDFC"/>
<path fill-rule="evenodd" clip-rule="evenodd" d="M233.84 250.833L233.841 250.841C233.84 250.838 233.841 250.836 233.84 250.833H233.84Z" fill="#DDDDFC"/>
<path fill-rule="evenodd" clip-rule="evenodd" d="M222.24 244.538L222.221 244.399C222.223 244.445 222.23 244.491 222.24 244.538Z" fill="#DDDDFC"/>
<path fill-rule="evenodd" clip-rule="evenodd" d="M222.22 244.391L222.221 244.399V244.391H222.22Z" fill="#DDDDFC"/>
<path fill-rule="evenodd" clip-rule="evenodd" d="M237.689 245.407L231.803 248.649C230.74 249.235 230.05 249.178 229.169 248.719L222.834 245.249C222.476 245.038 222.296 244.79 222.24 244.538L222.307 245.037C222.352 245.294 222.578 245.506 222.859 245.672L229.195 249.141C230.075 249.601 230.765 249.657 231.828 249.072L237.715 245.829C238.078 245.629 238.425 245.489 238.46 245.087L238.508 244.353H238.505C238.487 244.756 238.193 245.129 237.689 245.407Z" fill="#DDDDFC"/>
<path fill-rule="evenodd" clip-rule="evenodd" d="M226.196 238.872L220.309 242.114C219.247 242.699 218.556 242.643 217.676 242.184L211.34 238.714C210.981 238.503 210.802 238.254 210.746 238.002L210.813 238.503C210.857 238.757 211.085 238.97 211.365 239.136L217.701 242.606C218.581 243.066 219.271 243.121 220.335 242.536L226.221 239.293C226.584 239.094 226.931 238.953 226.966 238.552L227.014 237.817H227.011C226.993 238.22 226.7 238.593 226.196 238.872Z" fill="#DDDDFC"/>
<path fill-rule="evenodd" clip-rule="evenodd" d="M263.585 91.8014L263.627 189.581C263.754 193.178 266.549 194.173 266.549 194.173L378.785 257.166C378.785 257.166 380.247 257.956 381.964 258.168C382.972 258.292 384.067 258.218 385.007 257.666C385.101 257.611 385.193 257.555 385.277 257.492C387.285 255.989 387.261 252.193 387.261 252.193V156.864C387.056 152.754 383.456 151.226 383.456 151.226L267.712 87.5959C267.712 87.5959 265.48 86.3889 264.504 87.4516C263.467 88.5815 263.585 89.2707 263.585 91.8014Z" fill="#C86DD7"/>
<path fill-rule="evenodd" clip-rule="evenodd" d="M369.084 279.735L373.111 277.431C373.735 277.074 374.103 276.216 373.757 275.607C374.15 275.655 374.517 275.867 374.736 276.219C375.115 276.83 374.743 277.713 374.108 278.076L370.082 280.38C369.709 280.593 369.275 280.608 368.902 280.466C368.637 280.365 368.401 280.188 368.244 279.934C368.237 279.923 368.232 279.911 368.226 279.9C368.513 279.938 368.815 279.889 369.084 279.735Z" fill="#B6B6DD"/>
<path fill-rule="evenodd" clip-rule="evenodd" d="M368.873 278.077L372.899 275.773C373.117 275.648 373.357 275.594 373.594 275.596C373.649 275.596 373.703 275.6 373.757 275.607C374.103 276.216 373.735 277.074 373.111 277.431L369.084 279.735C368.815 279.889 368.513 279.938 368.226 279.9C367.88 279.291 368.249 278.434 368.873 278.077Z" fill="#C7C7EA"/>
<path fill-rule="evenodd" clip-rule="evenodd" d="M294.431 111.642V204.773L355.535 238.39V145.259L294.431 111.642Z" fill="white"/>
<path fill-rule="evenodd" clip-rule="evenodd" d="M294.431 118.503L355.535 152.119V185.908L294.431 152.291V118.503Z" fill="#DDDDFC"/>
<path fill-rule="evenodd" clip-rule="evenodd" d="M301.787 175.409V184.379L313.912 191.014V182.167L301.787 175.409Z" fill="#DDDDFC"/>
<path fill-rule="evenodd" clip-rule="evenodd" d="M308.998 165.733V168.375L340.247 185.73V183.211L308.998 165.733Z" fill="#DDDDFC"/>
<path fill-rule="evenodd" clip-rule="evenodd" d="M314.279 173.213V175.409L335.08 186.825V184.752L314.279 173.213Z" fill="#DDDDFC"/>
<path fill-rule="evenodd" clip-rule="evenodd" d="M301.787 185.73V186.897L313.912 193.533V192.488L301.787 185.73Z" fill="#DDDDFC"/>
<path fill-rule="evenodd" clip-rule="evenodd" d="M301.787 188.509V189.676L311.431 195.01V193.966L301.787 188.509Z" fill="#DDDDFC"/>
<path fill-rule="evenodd" clip-rule="evenodd" d="M318.196 184.484V193.453L330.32 200.088V191.241L318.196 184.484Z" fill="#DDDDFC"/>
<path fill-rule="evenodd" clip-rule="evenodd" d="M318.196 194.805V195.972L330.32 202.607V201.563L318.196 194.805Z" fill="#DDDDFC"/>
<path fill-rule="evenodd" clip-rule="evenodd" d="M318.196 197.378V198.544L327.841 203.879V202.834L318.196 197.378Z" fill="#DDDDFC"/>
<path fill-rule="evenodd" clip-rule="evenodd" d="M334.549 193.558V202.528L346.673 209.163V200.316L334.549 193.558Z" fill="#DDDDFC"/>
<path fill-rule="evenodd" clip-rule="evenodd" d="M334.581 216.278V220.531L345.275 226.382V222.252L334.581 216.278Z" fill="#DDDDFC"/>
<path fill-rule="evenodd" clip-rule="evenodd" d="M334.549 203.879V205.046L346.673 211.682V210.637L334.549 203.879Z" fill="#DDDDFC"/>
<path fill-rule="evenodd" clip-rule="evenodd" d="M334.581 206.435V207.601L344.225 212.936V211.891L334.581 206.435Z" fill="#DDDDFC"/>
<path fill-rule="evenodd" clip-rule="evenodd" d="M334.581 216.278L335.349 215.904L345.913 221.877L345.275 222.252L334.581 216.278Z" fill="#E4E4F4"/>
<path fill-rule="evenodd" clip-rule="evenodd" d="M345.275 222.252L345.913 221.877V226.007L345.275 226.382V222.252Z" fill="#CECEEF"/>
<path fill-rule="evenodd" clip-rule="evenodd" d="M298.046 116.498C298.543 116.103 299.317 116.216 299.775 116.75C300.233 117.283 300.202 118.037 299.705 118.432C299.207 118.828 298.433 118.715 297.975 118.182C297.517 117.647 297.548 116.894 298.046 116.498Z" fill="#E8F0F4"/>
<path fill-rule="evenodd" clip-rule="evenodd" d="M163.299 213.425C163.299 213.425 98.6266 249.497 96.504 250.68C92.7963 252.746 89.4676 250.357 89.4676 250.357L47.3086 226.952C47.3086 226.952 46.0914 226.417 46.0655 225.052C46.0642 225.046 46.0625 225.04 46.0625 225.034V227.31C46.0625 228.297 47.5629 229.126 47.5629 229.126L89.8231 252.999C89.8231 252.999 93.0447 255.114 96.7464 253.006C98.8571 251.803 163.299 215.394 163.299 215.394C163.299 215.394 165.261 214.486 165.261 212.871V211.433C165.121 212.612 163.299 213.425 163.299 213.425Z" fill="#DDDDFC"/>
<path fill-rule="evenodd" clip-rule="evenodd" d="M162.634 208.609L122.678 185.99C122.678 185.99 119.206 183.538 115.224 185.778L47.3745 223.119C47.3745 223.119 46.0625 223.729 46.0625 225.01C46.0625 225.024 46.0642 225.038 46.0655 225.052C46.0914 226.417 47.3086 226.952 47.3086 226.952L89.4676 250.357C89.4676 250.357 92.7963 252.746 96.504 250.68C98.6266 249.497 163.299 213.425 163.299 213.425C163.299 213.425 165.121 212.612 165.261 211.433C165.422 210.085 162.634 208.609 162.634 208.609Z" fill="#F6F6FF"/>
<path fill-rule="evenodd" clip-rule="evenodd" d="M158.902 211.579L101.497 243.51L60.3417 220.643L117.394 188.414L158.902 211.579Z" fill="#C86DD7"/>
<path fill-rule="evenodd" clip-rule="evenodd" d="M71.0052 234.862C71.0052 233.887 72.3619 233.096 74.0354 233.096C75.7081 233.096 77.0656 233.887 77.0656 234.862C77.0656 235.837 75.7081 236.628 74.0354 236.628C72.3619 236.628 71.0052 235.837 71.0052 234.862ZM70.7662 234.862C70.7662 235.914 72.2297 236.767 74.0354 236.767C75.8404 236.767 77.3038 235.914 77.3038 234.862C77.3038 233.81 75.8404 232.957 74.0354 232.957C72.2297 232.957 70.7662 233.81 70.7662 234.862Z" fill="#D8D8D8"/>
<path fill-rule="evenodd" clip-rule="evenodd" d="M180.617 146.791L180.652 147.474C180.927 152.002 183.192 177.54 199.603 182.004C212.759 185.292 216.483 180.536 216.906 179.915L218.86 141.438H180.346L180.617 146.784V146.791Z" fill="white"/>
<path fill-rule="evenodd" clip-rule="evenodd" d="M199.603 182.004C183.193 177.54 180.926 152.002 180.652 147.474L182.433 182.524C182.433 187.848 190.12 192.165 199.603 192.165C209.086 192.165 216.773 187.848 216.773 182.524L216.906 179.915C216.484 180.536 212.759 185.292 199.603 182.004Z" fill="#F6F6FF"/>
<path fill-rule="evenodd" clip-rule="evenodd" d="M199.603 188.693C190.544 188.693 183.102 184.811 182.258 179.849C182.205 180.159 182.176 180.473 182.176 180.79C182.176 186.195 189.979 190.576 199.603 190.576C209.228 190.576 217.03 186.195 217.03 180.79C217.03 180.473 217.001 180.159 216.948 179.849C216.104 184.811 208.662 188.693 199.603 188.693Z" fill="#F0F0FC"/>
<path fill-rule="evenodd" clip-rule="evenodd" d="M218.453 140.197C218.453 146.043 210.014 150.781 199.603 150.781C189.192 150.781 180.752 146.043 180.752 140.197C180.752 134.351 189.192 129.613 199.603 129.613C210.014 129.613 218.453 134.351 218.453 140.197Z" fill="white"/>
<path fill-rule="evenodd" clip-rule="evenodd" d="M199.603 153.786C189.629 153.786 181.434 149.512 180.505 144.047C180.447 144.389 180.415 144.735 180.415 145.084C180.415 151.035 189.006 155.859 199.603 155.859C210.2 155.859 218.792 151.035 218.792 145.084C218.792 144.735 218.759 144.389 218.701 144.047C217.772 149.512 209.577 153.786 199.603 153.786Z" fill="#F0F0FC"/>
<path fill-rule="evenodd" clip-rule="evenodd" d="M199.603 144.748C189.809 144.748 181.763 140.551 180.851 135.185C180.793 135.521 180.762 135.86 180.762 136.204C180.762 142.047 189.197 146.784 199.603 146.784C210.008 146.784 218.444 142.047 218.444 136.204C218.444 135.86 218.412 135.521 218.356 135.185C217.443 140.551 209.396 144.748 199.603 144.748Z" fill="#FCFCFC"/>
<path fill-rule="evenodd" clip-rule="evenodd" d="M199.984 150.567C207.296 151.226 211.76 150.197 214.476 148.811C216.262 147.676 217.641 146.336 218.489 144.861C218.576 144.637 218.606 144.504 218.606 144.504C218.606 144.504 218.627 144.516 218.666 144.534C219.171 143.551 219.448 142.513 219.448 141.438C219.448 135.284 210.563 130.295 199.603 130.295C190.81 130.295 183.358 133.508 180.752 137.955C180.743 138.265 180.562 149.057 199.984 150.567Z" fill="white"/>
<path fill-rule="evenodd" clip-rule="evenodd" d="M199.603 152.581C205.527 152.581 210.841 151.122 214.476 148.811C211.76 150.197 207.296 151.226 199.984 150.567C180.562 149.057 180.743 138.265 180.752 137.955C180.11 139.051 179.758 140.221 179.758 141.438C179.758 147.592 188.643 152.581 199.603 152.581Z" fill="#F6F6FF"/>
<path fill-rule="evenodd" clip-rule="evenodd" d="M218.354 136.361C218.354 142.176 209.959 146.89 199.603 146.89C189.247 146.89 180.852 142.176 180.852 136.361C180.852 130.546 189.247 125.832 199.603 125.832C209.959 125.832 218.354 130.546 218.354 136.361Z" fill="white"/>
<path fill-rule="evenodd" clip-rule="evenodd" d="M199.603 125.955C189.334 125.955 180.978 130.623 180.978 136.361C180.978 142.099 189.334 146.767 199.603 146.767C209.873 146.767 218.227 142.099 218.227 136.361C218.227 130.623 209.873 125.955 199.603 125.955ZM199.603 147.012C189.193 147.012 180.725 142.234 180.725 136.361C180.725 130.488 189.193 125.71 199.603 125.71C210.012 125.71 218.481 130.488 218.481 136.361C218.481 142.234 210.012 147.012 199.603 147.012Z" fill="#F7F7F7"/>
<path fill-rule="evenodd" clip-rule="evenodd" d="M198.332 142.622H202.514C202.619 142.622 202.719 142.644 202.809 142.682C202.809 142.674 202.811 142.666 202.811 142.658C202.811 142.264 202.482 141.945 202.075 141.945H197.893C197.487 141.945 197.157 142.264 197.157 142.658C197.157 142.95 197.339 143.2 197.598 143.31C197.611 142.929 197.934 142.622 198.332 142.622Z" fill="#DADEE0"/>
<path fill-rule="evenodd" clip-rule="evenodd" d="M202.075 143.371C202.473 143.371 202.796 143.064 202.809 142.682C202.719 142.644 202.619 142.622 202.513 142.622H198.332C197.934 142.622 197.611 142.928 197.599 143.311C197.689 143.349 197.788 143.371 197.893 143.371H202.075Z" fill="#E8E8E8"/>
<defs>
<linearGradient id="paint0_linear" x1="20.795" y1="360.91" x2="-38.795" y2="421.09" gradientUnits="userSpaceOnUse">
<stop stop-color="#3023AE"/>
<stop offset="1" stop-color="#C86DD7"/>
</linearGradient>
<linearGradient id="paint1_linear" x1="378.16" y1="146.68" x2="143.84" y2="383.32" gradientUnits="userSpaceOnUse">
<stop stop-color="#3023AE"/>
<stop offset="1" stop-color="#C86DD7"/>
</linearGradient>
<linearGradient id="paint2_linear" x1="376.955" y1="35.59" x2="285.045" y2="128.41" gradientUnits="userSpaceOnUse">
<stop stop-color="#3023AE"/>
<stop offset="1" stop-color="#C86DD7"/>
</linearGradient>
<linearGradient id="paint3_linear" x1="381.23" y1="-23.46" x2="334.77" y2="23.46" gradientUnits="userSpaceOnUse">
<stop stop-color="#3023AE"/>
<stop offset="1" stop-color="#C86DD7"/>
</linearGradient>
<linearGradient id="paint4_linear" x1="412.032" y1="511.925" x2="412.032" y2="199.289" gradientUnits="userSpaceOnUse">
<stop stop-color="white"/>
<stop offset="1" stop-color="#DDDDFF"/>
</linearGradient>
</defs>
</svg>
